<svg xmlns="http://www.w3.org/2000/svg" xmlns:xlink="http://www.w3.org/1999/xlink" width="56" height="53" viewBox="0 0 56 53"><defs><path id="txeaa" d="M499.6 681.449h8.4v5.592h-3.732L499.6 715h-39.2l-4.668-27.96H452v-5.591h8.4L471.664 662l4.85 2.827-9.649 16.622h26.27l-9.652-16.653 4.85-2.765zM495.286 709L499 687h-37l3.714 22zm-21.287-5.528c-7.372-6.764.603-14.145 5.176-8.423.163.21.49.204.654-.002 4.471-5.634 12.706 1.608 5.02 8.564-4.47 4.053-5.24 5.013-10.85-.14z"/></defs><g><g transform="translate(-452 -662)"><use fill="#f5a623" xlink:href="#txeaa"/></g></g></svg>