<svg xmlns="http://www.w3.org/2000/svg" xmlns:xlink="http://www.w3.org/1999/xlink" width="287" height="287" viewBox="0 0 287 287"><defs><path id="tzega" d="M401 542h28v56h-28zm-83 0h28v56h-28zm170.303-16.835V686H258.702V526.442c-9.04-2.654-16.417-6.5-20.621-11.68-18.182-22.516 0-115.762 0-115.762h269.824s20.463 95.298 0 115.761c-4.333 4.334-11.279 7.778-19.602 10.404zm-77.129-31.999c3.247-9.615 2.02-37.335-2.54-66.166h-67.872c-4.17 29.634-5.065 58.071-1.717 67.644 14.674 7.982 57.369 6.673 72.13-1.478zM292.756 500c5.906 0 11.266-.394 16.109-.985-4.44-19.185-1.868-49.65 1.135-72.015h-48.253c-4.153 29.608-5.044 58.02-1.71 67.585 3.836 2.096 14.958 5.415 32.72 5.415zM461 530.845c-16.131 1.222-34.285.244-49.234-4.83-22.857 6.9-54.877 7.331-76.494-.015-12.184 3.695-27.844 5.851-45.272 5.19V658h71.25v-57.504h28.5V658H461zM436 427c3.424 22.702 6.428 53.702 1.378 72.536 3.178.253 6.501.464 10.288.464 19.938 0 34.448-4.121 39.498-6.892 3.265-9.607 2.031-37.302-2.554-66.108z"/><linearGradient id="tzegb" x1="376.11" x2="376.11" y1="683.39" y2="401.61" gradientUnits="userSpaceOnUse"><stop offset="0" stop-color="#677bbf"/><stop offset="1" stop-color="#049f77"/></linearGradient></defs><g><g transform="translate(-230 -399)"><use fill="url(#tzegb)" xlink:href="#tzega"/></g></g></svg>